<?xml version="1.0" encoding="utf-8"?>
<!-- Generator: Adobe Illustrator 24.3.0, SVG Export Plug-In . SVG Version: 6.00 Build 0)  -->
<svg version="1.1" id="Layer_1" xmlns="http://www.w3.org/2000/svg" xmlns:xlink="http://www.w3.org/1999/xlink" x="0px" y="0px"
	 viewBox="0 0 300 300" style="enable-background:new 0 0 300 300;" xml:space="preserve">
<style type="text/css">
	.st0{fill:#547DEF;}
</style>
<path d="M83,207.9c-7.4,0-13.4-1.4-17.9-4.3c-4.5-2.8-7.3-6.9-8.4-12.1l15.8-1.9c0.6,2.4,1.8,4.4,3.6,5.7s4.3,2.1,7.3,2.1
	c4.4,0,7.6-1.4,9.6-4.1s3-6.7,3-12v-3.2l0.1-6h-0.1c-3.5,7.5-10,11.2-19.6,11.2c-7.1,0-12.6-2.7-16.5-8c-3.9-5.3-5.9-13-5.9-22.9
	c0-9.9,2-17.6,6-23c4-5.4,9.9-8.1,17.5-8.1c8.9,0,15,3.7,18.4,11h0.3c0-1.3,0.1-3.1,0.3-5.3s0.3-3.7,0.5-4.4h15
	c-0.2,4.1-0.3,8.7-0.3,14.1v45c0,8.7-2.5,15.2-7.4,19.7C99.5,205.7,92.4,207.9,83,207.9z M96.2,152.2c0-6.3-1.1-11.2-3.4-14.7
	c-2.2-3.5-5.4-5.3-9.5-5.3c-8.4,0-12.7,6.8-12.7,20.3c0,13.3,4.2,19.9,12.6,19.9c4.2,0,7.4-1.8,9.7-5.3
	C95.1,163.6,96.2,158.6,96.2,152.2z"/>
<path d="M116.7,111.6V99.9h15.8v11.7H116.7z M116.7,183.5v-60.9h15.8v60.9H116.7z"/>
<path d="M161.8,122.6v-4.8c0-2.7,0.6-4.6,1.7-5.7c1.1-1.1,3-1.6,5.7-1.6c1.5,0,3.1,0.2,4.6,0.5v-10.2c-3.7-0.6-7.1-0.9-10-0.9
	c-6,0-10.4,1.3-13.3,4c-2.9,2.7-4.4,6.8-4.4,12.3v6.4h-8.9v10.7h8.9v50.2h15.8v-50.2h13.8c0-3.7,0-7.3,0-10.7H161.8z"/>
<path class="st0" d="M234.5,122.6h-27.9c0,3.4,0,7,0,10.7h27.9V122.6z"/>
<path d="M194.2,184.5c-4.7,0-8.2-1.3-10.8-3.8c-2.5-2.5-3.8-6.4-3.8-11.5v-35.9H172v-10.7h8.5l5-14.3h9.9v14.3h11.5v10.7h-11.5v31.6
	c0,3,0.6,5.2,1.7,6.6s2.9,2.1,5.2,2.1c1.2,0,3-0.3,5.3-0.8v9.8C203.7,183.9,199.2,184.5,194.2,184.5z"/>
<polygon class="st0" points="261.3,128.1 247.9,134.2 234.4,140.4 234.4,128.1 234.4,115.7 247.9,121.9 "/>
</svg>
